<svg width="692" height="533" viewBox="0 0 692 533" fill="none" xmlns="http://www.w3.org/2000/svg">
<g clip-path="url(#clip0_139_4)">
<path d="M691 528.191H1C0.734784 528.191 0.480429 528.079 0.292892 527.879C0.105356 527.68 0 527.409 0 527.127C0 526.845 0.105356 526.575 0.292892 526.375C0.480429 526.176 0.734784 526.064 1 526.064H691C691.265 526.064 691.52 526.176 691.707 526.375C691.895 526.575 692 526.845 692 527.127C692 527.409 691.895 527.68 691.707 527.879C691.52 528.079 691.265 528.191 691 528.191Z" fill="#CCCCCC"/>
<path d="M622.705 342.72H216.705C214.981 342.72 213.327 343.449 212.108 344.745C210.889 346.041 210.205 347.799 210.205 349.633C210.205 351.466 210.889 353.224 212.108 354.521C213.327 355.817 214.981 356.545 216.705 356.545H228.205V521.915C228.205 523.748 228.889 525.506 230.108 526.803C231.327 528.099 232.981 528.827 234.705 528.827C236.428 528.827 238.082 528.099 239.301 526.803C240.52 525.506 241.205 523.748 241.205 521.915L241.303 356.545H597.205V521.915C597.205 523.748 597.889 525.506 599.108 526.803C600.327 528.099 601.981 528.827 603.705 528.827C605.428 528.827 607.082 528.099 608.301 526.803C609.52 525.506 610.205 523.748 610.205 521.915V360.19L612.096 356.545H622.705C624.428 356.545 626.082 355.817 627.301 354.521C628.52 353.224 629.205 351.466 629.205 349.633C629.205 347.799 628.52 346.041 627.301 344.745C626.082 343.449 624.428 342.72 622.705 342.72Z" fill="#CCCCCC"/>
<path d="M441.794 346.338H318.812C316.431 346.335 314.148 345.328 312.464 343.537C310.78 341.746 309.833 339.318 309.831 336.786V264.779C309.833 262.247 310.78 259.819 312.464 258.028C314.148 256.238 316.431 255.23 318.812 255.228H441.794C444.175 255.23 446.458 256.238 448.142 258.028C449.826 259.819 450.773 262.247 450.776 264.779V336.786C450.773 339.318 449.826 341.746 448.142 343.537C446.458 345.328 444.175 346.335 441.794 346.338Z" fill="#3F3D56"/>
<path d="M441.793 262.579H318.813C318.264 262.58 317.739 262.812 317.351 263.225C316.963 263.638 316.744 264.197 316.743 264.78V336.788C316.744 337.371 316.963 337.93 317.351 338.343C317.739 338.756 318.264 338.988 318.813 338.989H441.793C442.342 338.988 442.868 338.756 443.256 338.343C443.644 337.93 443.862 337.371 443.863 336.788V264.78C443.862 264.197 443.644 263.638 443.256 263.225C442.868 262.812 442.342 262.58 441.793 262.579Z" fill="white"/>
<path d="M390.792 313.56C390.792 313.56 376.07 309.952 367.973 316.566C359.875 323.18 378.278 338.213 378.278 338.213L390.792 313.56Z" fill="#2F2E41"/>
<path d="M381.024 306.743C388.694 306.743 394.911 300.131 394.911 291.975C394.911 283.818 388.694 277.206 381.024 277.206C373.355 277.206 367.137 283.818 367.137 291.975C367.137 300.131 373.355 306.743 381.024 306.743Z" fill="#A0616A"/>
<path d="M370.286 271.243C371.212 269.571 372.554 268.205 374.165 267.293C375.775 266.382 377.591 265.962 379.412 266.079C381.317 266.333 383.176 266.886 384.928 267.721L394.006 271.487C396.355 272.461 398.928 273.655 399.947 276.108C400.893 278.384 400.188 281.013 399.473 283.383L396.077 294.649C395.7 292.099 395.055 289.603 394.152 287.207C393.234 284.795 391.576 282.785 389.447 281.503C387.089 280.216 384.31 280.243 381.663 280.378C377.914 280.57 373.837 281.078 371.173 283.89C369.759 285.487 368.801 287.478 368.409 289.632C368.023 291.774 367.829 293.95 367.829 296.131C366.292 293.321 364.997 290.368 363.96 287.309C363.107 285.032 362.621 282.618 362.522 280.168C362.433 277.698 363.204 275.28 364.687 273.376C365.439 272.446 366.422 271.758 367.523 271.389C368.623 271.021 369.799 270.987 370.917 271.291L370.286 271.243Z" fill="#2F2E41"/>
<path d="M414.183 326.366C414.053 325.867 413.787 325.42 413.418 325.082C413.05 324.743 412.596 324.527 412.113 324.462C412.081 324.438 412.048 324.417 412.013 324.398L391.282 312.043C390.69 311.69 389.993 311.593 389.336 311.773C388.678 311.953 388.112 312.396 387.753 313.009L382.083 322.771L373.543 313.689L373.408 313.545C372.969 313.079 372.391 312.792 371.773 312.734C371.156 312.677 370.539 312.853 370.031 313.231L352.993 325.919C352.963 325.919 352.933 325.93 352.903 325.93C352.088 326.074 351.343 326.51 350.792 327.166C350.241 327.821 349.917 328.657 349.873 329.535L349.433 338.989H417.473L414.183 326.366Z" fill="#6C63FF"/>
<path d="M452.158 337.521H439.03C439.03 337.131 438.885 336.757 438.626 336.481C438.367 336.206 438.015 336.051 437.649 336.051H433.503C433.137 336.051 432.785 336.206 432.526 336.481C432.267 336.757 432.121 337.131 432.121 337.521H427.976C427.976 337.131 427.83 336.757 427.571 336.481C427.312 336.206 426.961 336.051 426.594 336.051H422.449C422.082 336.051 421.731 336.206 421.471 336.481C421.212 336.757 421.067 337.131 421.067 337.521H416.921C416.921 337.131 416.776 336.757 416.517 336.481C416.257 336.206 415.906 336.051 415.539 336.051H411.394C411.028 336.051 410.676 336.206 410.417 336.481C410.158 336.757 410.012 337.131 410.012 337.521H405.867C405.867 337.131 405.721 336.757 405.462 336.481C405.203 336.206 404.851 336.051 404.485 336.051H400.34C399.973 336.051 399.622 336.206 399.362 336.481C399.103 336.757 398.958 337.131 398.958 337.521H394.812C394.812 337.131 394.667 336.757 394.408 336.481C394.148 336.206 393.797 336.051 393.43 336.051H389.285C388.918 336.051 388.567 336.206 388.308 336.481C388.049 336.757 387.903 337.131 387.903 337.521H383.758C383.758 337.131 383.612 336.757 383.353 336.481C383.094 336.206 382.742 336.051 382.376 336.051H378.23C377.864 336.051 377.512 336.206 377.253 336.481C376.994 336.757 376.849 337.131 376.849 337.521H372.703C372.703 337.131 372.558 336.757 372.298 336.481C372.039 336.206 371.688 336.051 371.321 336.051H367.176C366.809 336.051 366.458 336.206 366.199 336.481C365.94 336.757 365.794 337.131 365.794 337.521H361.649C361.649 337.131 361.503 336.757 361.244 336.481C360.985 336.206 360.633 336.051 360.267 336.051H356.121C355.755 336.051 355.403 336.206 355.144 336.481C354.885 336.757 354.74 337.131 354.74 337.521H350.594C350.594 337.131 350.448 336.757 350.189 336.481C349.93 336.206 349.579 336.051 349.212 336.051H345.067C344.7 336.051 344.349 336.206 344.09 336.481C343.831 336.757 343.685 337.131 343.685 337.521H339.539C339.539 337.131 339.394 336.757 339.135 336.481C338.876 336.206 338.524 336.051 338.158 336.051H334.012C333.646 336.051 333.294 336.206 333.035 336.481C332.776 336.757 332.63 337.131 332.63 337.521H328.485C328.485 337.131 328.339 336.757 328.08 336.481C327.821 336.206 327.47 336.051 327.103 336.051H322.958C322.591 336.051 322.24 336.206 321.981 336.481C321.721 336.757 321.576 337.131 321.576 337.521H308.449C307.35 337.522 306.298 337.988 305.521 338.814C304.745 339.641 304.31 340.761 304.31 341.929C304.31 343.097 304.745 344.217 305.521 345.044C306.298 345.871 307.35 346.336 308.449 346.338H452.158C453.257 346.338 454.312 345.873 455.089 345.046C455.866 344.22 456.303 343.098 456.303 341.929C456.303 340.76 455.866 339.639 455.089 338.812C454.312 337.985 453.257 337.521 452.158 337.521Z" fill="#3F3D56"/>
<path d="M287.079 311.919V341.192H218.117C216.269 341.26 214.427 340.932 212.702 340.227C210.976 339.522 209.401 338.455 208.071 337.089C206.741 335.724 205.684 334.087 204.961 332.277C204.239 330.467 203.867 328.521 203.867 326.555C203.867 324.589 204.239 322.643 204.961 320.833C205.684 319.023 206.741 317.387 208.071 316.021C209.401 314.655 210.976 313.588 212.702 312.883C214.427 312.178 216.269 311.85 218.117 311.919H287.079Z" fill="#F2F2F2"/>
<path d="M288.773 340.966C288.773 341.265 288.662 341.551 288.463 341.762C288.264 341.973 287.995 342.092 287.714 342.092H216.889C213.042 342.092 209.353 340.467 206.633 337.574C203.913 334.682 202.385 330.758 202.385 326.668C202.385 322.577 203.913 318.654 206.633 315.761C209.353 312.868 213.042 311.243 216.889 311.243H287.714C287.995 311.243 288.265 311.362 288.463 311.573C288.662 311.784 288.773 312.07 288.773 312.369C288.773 312.668 288.662 312.954 288.463 313.165C288.265 313.376 287.995 313.495 287.714 313.495H216.889C213.606 313.498 210.458 314.887 208.137 317.357C205.817 319.827 204.513 323.176 204.513 326.668C204.513 330.159 205.817 333.508 208.137 335.978C210.458 338.448 213.606 339.837 216.889 339.84H287.714C287.995 339.841 288.264 339.959 288.463 340.17C288.661 340.381 288.773 340.668 288.773 340.966Z" fill="#6C63FF"/>
<path d="M287.079 318.674H212.971C212.944 318.674 212.916 318.669 212.89 318.657C212.864 318.646 212.841 318.63 212.821 318.609C212.801 318.588 212.785 318.563 212.775 318.535C212.764 318.508 212.758 318.479 212.758 318.449C212.758 318.419 212.764 318.39 212.775 318.362C212.785 318.335 212.801 318.31 212.821 318.289C212.841 318.268 212.864 318.252 212.89 318.24C212.916 318.229 212.944 318.223 212.971 318.224H287.079C287.135 318.224 287.189 318.248 287.228 318.29C287.267 318.332 287.29 318.389 287.29 318.449C287.29 318.508 287.267 318.565 287.228 318.608C287.189 318.65 287.135 318.674 287.079 318.674Z" fill="#CCCCCC"/>
<path d="M287.079 324.078H212.971C212.944 324.078 212.916 324.073 212.89 324.062C212.864 324.05 212.841 324.034 212.821 324.013C212.801 323.992 212.785 323.967 212.775 323.94C212.764 323.912 212.758 323.883 212.758 323.853C212.758 323.823 212.764 323.794 212.775 323.767C212.785 323.739 212.801 323.714 212.821 323.693C212.841 323.672 212.864 323.656 212.89 323.645C212.916 323.633 212.944 323.628 212.971 323.628H287.079C287.135 323.628 287.189 323.652 287.228 323.694C287.267 323.737 287.29 323.794 287.29 323.853C287.29 323.913 287.267 323.97 287.228 324.012C287.189 324.054 287.135 324.078 287.079 324.078Z" fill="#CCCCCC"/>
<path d="M287.079 329.483H212.971C212.944 329.483 212.916 329.477 212.89 329.466C212.864 329.455 212.841 329.438 212.821 329.417C212.801 329.396 212.785 329.371 212.775 329.344C212.764 329.317 212.758 329.287 212.758 329.257C212.758 329.228 212.764 329.198 212.775 329.171C212.785 329.143 212.801 329.119 212.821 329.098C212.841 329.077 212.864 329.06 212.89 329.049C212.916 329.038 212.944 329.032 212.971 329.032H287.079C287.135 329.033 287.189 329.057 287.228 329.099C287.267 329.141 287.29 329.198 287.29 329.257C287.29 329.317 287.267 329.374 287.228 329.416C287.189 329.458 287.135 329.482 287.079 329.483Z" fill="#CCCCCC"/>
<path d="M287.079 334.887H212.971C212.944 334.887 212.916 334.881 212.89 334.87C212.864 334.859 212.841 334.842 212.821 334.821C212.801 334.8 212.785 334.775 212.775 334.748C212.764 334.721 212.758 334.691 212.758 334.661C212.758 334.632 212.764 334.602 212.775 334.575C212.785 334.548 212.801 334.523 212.821 334.502C212.841 334.481 212.864 334.464 212.89 334.453C212.916 334.442 212.944 334.436 212.971 334.436H287.079C287.135 334.437 287.189 334.461 287.228 334.503C287.267 334.545 287.29 334.602 287.29 334.661C287.29 334.721 287.267 334.778 287.228 334.82C287.189 334.862 287.135 334.886 287.079 334.887Z" fill="#CCCCCC"/>
<path d="M274.079 281.078V310.351H205.117C203.269 310.419 201.427 310.091 199.702 309.387C197.976 308.682 196.401 307.615 195.071 306.249C193.741 304.883 192.684 303.246 191.961 301.437C191.239 299.627 190.867 297.681 190.867 295.715C190.867 293.748 191.239 291.802 191.961 289.993C192.684 288.183 193.741 286.546 195.071 285.18C196.401 283.814 197.976 282.747 199.702 282.043C201.427 281.338 203.269 281.01 205.117 281.078H274.079Z" fill="#F2F2F2"/>
<path d="M275.773 310.126C275.773 310.424 275.662 310.711 275.463 310.922C275.264 311.133 274.995 311.251 274.714 311.252H203.889C201.984 311.252 200.098 310.853 198.338 310.077C196.579 309.302 194.98 308.166 193.633 306.734C192.286 305.302 191.218 303.601 190.489 301.73C189.76 299.858 189.385 297.853 189.385 295.827C189.385 293.802 189.76 291.796 190.489 289.924C191.218 288.053 192.286 286.353 193.633 284.92C194.98 283.488 196.579 282.352 198.338 281.577C200.098 280.802 201.984 280.403 203.889 280.403H274.714C274.995 280.403 275.265 280.521 275.463 280.732C275.662 280.944 275.773 281.23 275.773 281.528C275.773 281.827 275.662 282.113 275.463 282.325C275.265 282.536 274.995 282.654 274.714 282.654H203.889C200.606 282.657 197.458 284.047 195.137 286.517C192.817 288.987 191.513 292.336 191.513 295.827C191.513 299.319 192.817 302.667 195.137 305.137C197.458 307.607 200.606 308.997 203.889 309H274.714C274.995 309 275.264 309.119 275.463 309.33C275.661 309.541 275.773 309.827 275.773 310.126Z" fill="#3F3D56"/>
<path d="M274.079 287.833H199.971C199.944 287.834 199.916 287.828 199.89 287.817C199.864 287.805 199.841 287.789 199.821 287.768C199.801 287.747 199.785 287.722 199.775 287.695C199.764 287.667 199.758 287.638 199.758 287.608C199.758 287.579 199.764 287.549 199.775 287.522C199.785 287.494 199.801 287.469 199.821 287.448C199.841 287.428 199.864 287.411 199.89 287.4C199.916 287.389 199.944 287.383 199.971 287.383H274.079C274.135 287.383 274.189 287.407 274.228 287.45C274.267 287.492 274.29 287.549 274.29 287.608C274.29 287.668 274.267 287.725 274.228 287.767C274.189 287.809 274.135 287.833 274.079 287.833Z" fill="#CCCCCC"/>
<path d="M274.079 293.238H199.971C199.944 293.238 199.916 293.232 199.89 293.221C199.864 293.21 199.841 293.193 199.821 293.172C199.801 293.151 199.785 293.126 199.775 293.099C199.764 293.072 199.758 293.042 199.758 293.013C199.758 292.983 199.764 292.953 199.775 292.926C199.785 292.899 199.801 292.874 199.821 292.853C199.841 292.832 199.864 292.815 199.89 292.804C199.916 292.793 199.944 292.787 199.971 292.787H274.079C274.135 292.788 274.189 292.812 274.228 292.854C274.267 292.896 274.29 292.953 274.29 293.013C274.29 293.072 274.267 293.129 274.228 293.171C274.189 293.213 274.135 293.237 274.079 293.238Z" fill="#CCCCCC"/>
<path d="M274.079 298.642H199.971C199.944 298.642 199.916 298.636 199.89 298.625C199.864 298.614 199.841 298.597 199.821 298.576C199.801 298.555 199.785 298.531 199.775 298.503C199.764 298.476 199.758 298.446 199.758 298.417C199.758 298.387 199.764 298.357 199.775 298.33C199.785 298.303 199.801 298.278 199.821 298.257C199.841 298.236 199.864 298.219 199.89 298.208C199.916 298.197 199.944 298.191 199.971 298.191H274.079C274.135 298.192 274.189 298.216 274.228 298.258C274.267 298.3 274.29 298.357 274.29 298.417C274.29 298.476 274.267 298.533 274.228 298.575C274.189 298.617 274.135 298.641 274.079 298.642Z" fill="#CCCCCC"/>
<path d="M274.079 304.046H199.971C199.944 304.046 199.916 304.041 199.89 304.029C199.864 304.018 199.841 304.002 199.821 303.981C199.801 303.96 199.785 303.935 199.775 303.907C199.764 303.88 199.758 303.851 199.758 303.821C199.758 303.791 199.764 303.762 199.775 303.734C199.785 303.707 199.801 303.682 199.821 303.661C199.841 303.64 199.864 303.624 199.89 303.612C199.916 303.601 199.944 303.596 199.971 303.596H274.079C274.135 303.596 274.189 303.62 274.228 303.662C274.267 303.704 274.29 303.761 274.29 303.821C274.29 303.88 274.267 303.937 274.228 303.98C274.189 304.022 274.135 304.046 274.079 304.046Z" fill="#CCCCCC"/>
<path d="M354.303 445.241V419.717C354.303 418.589 353.882 417.507 353.132 416.709C352.381 415.912 351.364 415.463 350.303 415.463H259.303C258.242 415.463 257.225 415.912 256.475 416.709C255.725 417.507 255.303 418.589 255.303 419.717V445.241H354.303Z" fill="#CCCCCC"/>
<path d="M354.303 454.812H255.303V487.779H354.303V454.812Z" fill="#CCCCCC"/>
<path d="M255.303 497.351V522.874C255.303 524.002 255.725 525.084 256.475 525.882C257.225 526.68 258.242 527.128 259.303 527.128H350.303C351.364 527.128 352.381 526.68 353.132 525.882C353.882 525.084 354.303 524.002 354.303 522.874V497.351H255.303Z" fill="#CCCCCC"/>
<path d="M304.303 434.606C305.96 434.606 307.303 433.178 307.303 431.416C307.303 429.653 305.96 428.225 304.303 428.225C302.646 428.225 301.303 429.653 301.303 431.416C301.303 433.178 302.646 434.606 304.303 434.606Z" fill="white"/>
<path d="M304.303 477.144C305.96 477.144 307.303 475.716 307.303 473.954C307.303 472.192 305.96 470.764 304.303 470.764C302.646 470.764 301.303 472.192 301.303 473.954C301.303 475.716 302.646 477.144 304.303 477.144Z" fill="white"/>
<path d="M304.464 518.783C306.121 518.783 307.464 517.354 307.464 515.592C307.464 513.83 306.121 512.402 304.464 512.402C302.807 512.402 301.464 513.83 301.464 515.592C301.464 517.354 302.807 518.783 304.464 518.783Z" fill="white"/>
<path d="M343.079 386.362V415.634H274.117C272.269 415.703 270.427 415.375 268.702 414.67C266.976 413.965 265.401 412.898 264.071 411.532C262.741 410.166 261.684 408.53 260.961 406.72C260.239 404.91 259.867 402.964 259.867 400.998C259.867 399.032 260.239 397.086 260.961 395.276C261.684 393.466 262.741 391.83 264.071 390.464C265.401 389.098 266.976 388.031 268.702 387.326C270.427 386.621 272.269 386.293 274.117 386.362H343.079Z" fill="#F2F2F2"/>
<path d="M344.773 415.409C344.773 415.708 344.661 415.994 344.463 416.205C344.264 416.416 343.995 416.535 343.714 416.535H272.889C270.983 416.537 269.096 416.139 267.334 415.365C265.573 414.59 263.973 413.454 262.625 412.022C261.277 410.589 260.207 408.888 259.478 407.016C258.748 405.144 258.373 403.137 258.373 401.11C258.373 399.084 258.748 397.077 259.478 395.205C260.207 393.333 261.277 391.632 262.625 390.199C263.973 388.767 265.573 387.631 267.334 386.856C269.096 386.082 270.983 385.684 272.889 385.686H343.714C343.995 385.686 344.264 385.805 344.463 386.016C344.661 386.227 344.773 386.513 344.773 386.812C344.773 387.11 344.661 387.397 344.463 387.608C344.264 387.819 343.995 387.938 343.714 387.938H272.889C269.605 387.941 266.458 389.33 264.137 391.8C261.817 394.27 260.513 397.619 260.513 401.11C260.513 404.602 261.817 407.951 264.137 410.421C266.458 412.891 269.605 414.28 272.889 414.283H343.714C343.995 414.283 344.264 414.402 344.463 414.613C344.661 414.824 344.773 415.111 344.773 415.409Z" fill="#3F3D56"/>
<path d="M343.079 393.117H268.971C268.944 393.117 268.916 393.111 268.89 393.1C268.864 393.089 268.841 393.072 268.821 393.051C268.801 393.031 268.785 393.006 268.775 392.978C268.764 392.951 268.758 392.921 268.758 392.892C268.758 392.862 268.764 392.833 268.775 392.805C268.785 392.778 268.801 392.753 268.821 392.732C268.841 392.711 268.864 392.694 268.89 392.683C268.916 392.672 268.944 392.666 268.971 392.667H343.079C343.135 392.667 343.189 392.691 343.228 392.733C343.267 392.775 343.289 392.832 343.289 392.892C343.289 392.951 343.267 393.008 343.228 393.05C343.189 393.093 343.135 393.116 343.079 393.117Z" fill="#CCCCCC"/>
<path d="M343.079 398.521H268.971C268.944 398.521 268.916 398.516 268.89 398.504C268.864 398.493 268.841 398.477 268.821 398.456C268.801 398.435 268.785 398.41 268.775 398.382C268.764 398.355 268.758 398.326 268.758 398.296C268.758 398.266 268.764 398.237 268.775 398.209C268.785 398.182 268.801 398.157 268.821 398.136C268.841 398.115 268.864 398.099 268.89 398.087C268.916 398.076 268.944 398.071 268.971 398.071H343.079C343.135 398.071 343.189 398.095 343.228 398.137C343.267 398.179 343.289 398.237 343.289 398.296C343.289 398.355 343.267 398.412 343.228 398.455C343.189 398.497 343.135 398.521 343.079 398.521Z" fill="#CCCCCC"/>
<path d="M343.079 403.925H268.971C268.944 403.926 268.916 403.92 268.89 403.909C268.864 403.898 268.841 403.881 268.821 403.86C268.801 403.839 268.785 403.814 268.775 403.787C268.764 403.759 268.758 403.73 268.758 403.7C268.758 403.671 268.764 403.641 268.775 403.614C268.785 403.586 268.801 403.561 268.821 403.54C268.841 403.52 268.864 403.503 268.89 403.492C268.916 403.481 268.944 403.475 268.971 403.475H343.079C343.135 403.476 343.189 403.499 343.228 403.542C343.267 403.584 343.289 403.641 343.289 403.7C343.289 403.76 343.267 403.817 343.228 403.859C343.189 403.901 343.135 403.925 343.079 403.925Z" fill="#CCCCCC"/>
<path d="M343.079 409.329H268.971C268.944 409.329 268.916 409.324 268.89 409.313C268.864 409.301 268.841 409.285 268.821 409.264C268.801 409.243 268.785 409.218 268.775 409.191C268.764 409.163 268.758 409.134 268.758 409.104C268.758 409.074 268.764 409.045 268.775 409.018C268.785 408.99 268.801 408.965 268.821 408.944C268.841 408.923 268.864 408.907 268.89 408.896C268.916 408.884 268.944 408.879 268.971 408.879H343.079C343.135 408.879 343.189 408.903 343.228 408.945C343.267 408.988 343.289 409.045 343.289 409.104C343.289 409.164 343.267 409.221 343.228 409.263C343.189 409.305 343.135 409.329 343.079 409.329Z" fill="#CCCCCC"/>
<path d="M250.11 195.302V8.66313C250.113 6.54245 250.906 4.50932 252.316 3.00978C253.726 1.51023 255.638 0.666719 257.632 0.664307H396.36C398.354 0.666733 400.266 1.51025 401.676 3.00979C403.086 4.50934 403.879 6.54246 403.882 8.66313V195.302C403.88 197.423 403.086 199.456 401.676 200.955C400.266 202.455 398.354 203.298 396.36 203.301H257.632C255.638 203.298 253.726 202.455 252.316 200.955C250.906 199.456 250.113 197.423 250.11 195.302ZM257.632 2.44182C256.081 2.44367 254.594 3.09972 253.497 4.26604C252.4 5.43236 251.784 7.0137 251.782 8.66313V195.302C251.784 196.951 252.4 198.533 253.497 199.699C254.594 200.865 256.081 201.521 257.632 201.523H396.36C397.911 201.521 399.398 200.865 400.495 199.699C401.592 198.533 402.209 196.951 402.21 195.302V8.66313C402.209 7.01371 401.592 5.43236 400.495 4.26604C399.398 3.09973 397.911 2.44367 396.36 2.44182H257.632Z" fill="#E6E6E6"/>
<path d="M334.775 86.3774V48.0546C334.776 46.9942 335.173 45.9777 335.878 45.2279C336.583 44.4781 337.539 44.0564 338.536 44.0552H369.073C370.07 44.0564 371.026 44.4781 371.731 45.2279C372.436 45.9777 372.833 46.9942 372.834 48.0546V86.3774C372.833 87.4378 372.436 88.4544 371.731 89.2041C371.026 89.9539 370.07 90.3757 369.073 90.3769H338.536C337.539 90.3757 336.583 89.9539 335.878 89.2041C335.173 88.4544 334.776 87.4378 334.775 86.3774Z" fill="#6C63FF"/>
<path d="M275.44 104.153V65.83C275.441 64.7696 275.838 63.753 276.543 63.0032C277.248 62.2535 278.204 61.8317 279.201 61.8306H309.738C310.735 61.8317 311.691 62.2535 312.396 63.0032C313.101 63.753 313.497 64.7696 313.498 65.83V104.153C313.497 105.213 313.101 106.23 312.396 106.98C311.691 107.729 310.735 108.151 309.738 108.152H279.201C278.204 108.151 277.248 107.729 276.543 106.979C275.838 106.23 275.441 105.213 275.44 104.153Z" fill="#CCCCCC"/>
<path d="M323.076 158.367V120.044C323.077 118.983 323.473 117.967 324.178 117.217C324.883 116.467 325.839 116.046 326.836 116.044H357.373C358.37 116.046 359.326 116.467 360.031 117.217C360.736 117.967 361.133 118.983 361.134 120.044V158.367C361.133 159.427 360.736 160.444 360.031 161.193C359.326 161.943 358.37 162.365 357.373 162.366H326.836C325.839 162.365 324.883 161.943 324.178 161.193C323.473 160.444 323.077 159.427 323.076 158.367Z" fill="#FF6584"/>
<path d="M505.563 333.576H474.143C473.845 333.576 473.551 333.649 473.283 333.789L465.353 338.011C465.092 338.129 464.869 338.326 464.713 338.577C464.557 338.829 464.473 339.124 464.473 339.425C464.473 339.727 464.557 340.022 464.713 340.273C464.869 340.525 465.092 340.722 465.353 340.84L473.283 345.062C473.551 345.202 473.845 345.275 474.143 345.274H505.563C505.996 345.301 506.421 345.145 506.747 344.841C507.073 344.536 507.273 344.107 507.303 343.647V335.203C507.273 334.743 507.073 334.314 506.747 334.01C506.421 333.705 505.996 333.55 505.563 333.576Z" fill="#3F3D56"/>
<path d="M507.303 335.203V343.647C507.273 344.107 507.073 344.536 506.747 344.841C506.421 345.145 505.996 345.301 505.563 345.274H499.303V333.576H505.563C505.996 333.55 506.421 333.705 506.747 334.01C507.073 334.315 507.273 334.743 507.303 335.203Z" fill="#6C63FF"/>
<path d="M505.327 270.406C506.75 269.753 508.287 269.427 509.837 269.449C511.387 269.472 512.914 269.842 514.32 270.537C515.726 271.231 516.978 272.233 517.994 273.478C519.011 274.723 519.768 276.182 520.217 277.759C520.357 278.26 520.464 278.77 520.537 279.285L564.475 302.457L574.644 295.29L587.295 310.78L571.77 324.19C569.902 325.79 567.6 326.708 565.204 326.806C562.808 326.904 560.446 326.178 558.468 324.736L513.889 291.951C513.557 292.101 513.219 292.232 512.874 292.345C511.39 292.822 509.829 292.96 508.291 292.751C506.753 292.541 505.275 291.989 503.952 291.129C502.629 290.27 501.492 289.122 500.615 287.763C499.738 286.404 499.141 284.862 498.864 283.24C498.781 282.77 498.727 282.294 498.701 281.816C498.578 279.422 499.146 277.045 500.331 275.005C501.515 272.966 503.259 271.36 505.327 270.406Z" fill="#FFB8B8"/>
<path d="M596.841 413.069H548.831C548.831 414.536 499.351 415.728 499.351 415.728C498.574 416.349 497.867 417.063 497.241 417.854C495.362 420.238 494.335 423.251 494.341 426.362V428.489C494.342 432.014 495.659 435.395 498.003 437.888C500.347 440.38 503.526 441.781 506.841 441.783H596.841C600.155 441.779 603.333 440.378 605.676 437.886C608.02 435.393 609.338 432.014 609.341 428.489V426.362C609.336 422.838 608.018 419.46 605.675 416.968C603.331 414.476 600.155 413.074 596.841 413.069Z" fill="#3F3D56"/>
<path d="M544.618 530.586H557.618V441.255H544.618V530.586Z" fill="#3F3D56"/>
<path d="M507.618 530.1C507.618 531.594 527.317 530.678 551.618 530.678C575.918 530.678 595.618 531.594 595.618 530.1C595.618 528.606 575.918 516.761 551.618 516.761C527.317 516.761 507.618 528.606 507.618 530.1Z" fill="#3F3D56"/>
<path d="M519.353 519.63L507.094 519.629L501.261 485.814L519.355 485.815L519.353 519.63Z" fill="#FFB8B8"/>
<path d="M522.48 532.268L482.949 532.267V531.735C482.949 529.586 483.347 527.458 484.12 525.473C484.894 523.488 486.027 521.684 487.456 520.164C488.885 518.645 490.581 517.44 492.448 516.617C494.314 515.795 496.315 515.372 498.336 515.372H498.337L522.481 515.373L522.48 532.268Z" fill="#2F2E41"/>
<path d="M501.017 498.661L476.576 440.374C474.535 435.462 474.309 429.912 475.944 424.83C477.578 419.749 480.952 415.508 485.394 412.954L538.408 382.721L562.599 380.533L584.913 378.376L585.074 378.666C585.28 379.036 590.078 387.849 586.835 397.512C584.375 404.842 577.976 410.568 567.816 414.53C544.102 423.777 516.707 431.681 506.03 434.649C505.558 434.777 505.117 435.01 504.736 435.333C504.355 435.655 504.042 436.06 503.819 436.52C503.594 436.975 503.461 437.474 503.428 437.987C503.394 438.499 503.46 439.013 503.622 439.497L526.329 493.749C526.566 494.437 526.651 495.174 526.578 495.903C526.505 496.631 526.276 497.333 525.908 497.952C525.54 498.572 525.043 499.093 524.455 499.476C523.868 499.859 523.206 500.093 522.519 500.161L505.553 501.475C505.409 501.49 505.265 501.497 505.123 501.497C504.254 501.496 503.404 501.228 502.675 500.725C501.946 500.222 501.37 499.505 501.017 498.661Z" fill="#2F2E41"/>
<path d="M525.353 519.63L513.094 519.629L507.261 485.814L525.355 485.815L525.353 519.63Z" fill="#FFB8B8"/>
<path d="M528.48 532.268L488.949 532.267V531.735C488.949 529.586 489.347 527.458 490.12 525.473C490.894 523.488 492.027 521.684 493.456 520.164C494.885 518.645 496.581 517.44 498.448 516.617C500.314 515.795 502.315 515.372 504.336 515.372H504.337L528.481 515.373L528.48 532.268Z" fill="#2F2E41"/>
<path d="M508.017 501.851L483.576 443.565C481.535 438.652 481.309 433.102 482.944 428.021C484.578 422.939 487.952 418.699 492.394 416.144L545.408 385.912L569.599 383.724L591.913 381.567L592.074 381.856C592.28 382.226 597.078 391.039 593.835 400.703C591.375 408.033 584.976 413.758 574.816 417.72C551.102 426.968 523.707 434.871 513.03 437.839C512.558 437.968 512.117 438.201 511.736 438.523C511.355 438.846 511.042 439.25 510.819 439.711C510.594 440.166 510.461 440.665 510.428 441.177C510.394 441.689 510.46 442.203 510.622 442.687L533.329 496.94C533.566 497.628 533.651 498.364 533.578 499.093C533.505 499.822 533.276 500.523 532.908 501.143C532.54 501.762 532.043 502.284 531.455 502.667C530.868 503.05 530.206 503.284 529.519 503.352L512.553 504.665C512.409 504.68 512.265 504.687 512.123 504.687C511.254 504.687 510.404 504.419 509.675 503.915C508.946 503.412 508.37 502.695 508.017 501.851Z" fill="#2F2E41"/>
<path d="M495.835 323.794C485.564 309.265 477.445 293.151 471.759 276.01C471.43 274.985 471.453 273.868 471.826 272.86C472.198 271.851 472.894 271.016 473.791 270.502L508.936 250.475C509.505 250.149 510.136 249.964 510.782 249.937C511.427 249.909 512.07 250.038 512.662 250.314C513.265 250.593 513.799 251.014 514.226 251.545C514.652 252.077 514.959 252.705 515.123 253.381C519.214 269.899 526.903 285.16 537.569 297.931C538.008 298.451 538.33 299.07 538.51 299.742C538.69 300.414 538.723 301.121 538.607 301.809C538.496 302.486 538.241 303.127 537.861 303.683C537.482 304.239 536.988 304.696 536.418 305.018L501.272 325.045C500.373 325.555 499.334 325.709 498.338 325.48C497.342 325.251 496.455 324.653 495.835 323.794Z" fill="#CCCCCC"/>
<path d="M498.233 321.877C498.422 322.128 498.687 322.301 498.984 322.366C499.28 322.431 499.588 322.384 499.855 322.233L535 302.206C535.171 302.111 535.319 301.976 535.432 301.811C535.545 301.645 535.621 301.454 535.653 301.252C535.69 301.039 535.679 300.82 535.623 300.612C535.567 300.404 535.466 300.212 535.328 300.053C524.348 286.906 516.432 271.194 512.221 254.19C512.172 253.98 512.079 253.785 511.947 253.62C511.816 253.455 511.65 253.324 511.463 253.239C511.287 253.155 511.095 253.116 510.903 253.124C510.71 253.133 510.522 253.189 510.353 253.287L475.208 273.314C474.942 273.467 474.734 273.714 474.621 274.013C474.508 274.311 474.496 274.642 474.588 274.949C480.172 291.783 488.146 307.609 498.233 321.877Z" fill="white"/>
<path d="M612.592 318.451L585.068 329.574L578.348 309.723C577.455 307.087 577.468 304.201 578.383 301.573C579.299 298.946 581.058 296.748 583.35 295.367C585.668 293.97 588.38 293.5 590.996 294.043C593.611 294.586 595.958 296.106 597.612 298.328L612.592 318.451Z" fill="#6C63FF"/>
<path d="M542.583 397.105C542.004 396.67 541.518 396.108 541.159 395.457C540.8 394.806 540.575 394.082 540.499 393.331C536.974 358.333 539.429 330.944 548.005 309.599C549.516 305.918 551.791 302.648 554.66 300.036C557.53 297.425 560.919 295.538 564.572 294.52L586.822 293.325L586.937 293.384C591.958 296 596.052 300.266 598.613 305.551C601.175 310.836 602.066 316.858 601.156 322.724C594 342.784 588.008 363.671 592.577 380.519C592.769 381.224 592.825 381.962 592.742 382.69C592.659 383.418 592.438 384.12 592.094 384.756C591.759 385.369 591.311 385.904 590.775 386.326C590.239 386.749 589.627 387.05 588.978 387.211L546.599 397.932C545.913 398.106 545.2 398.122 544.507 397.979C543.815 397.837 543.159 397.539 542.583 397.105Z" fill="#6C63FF"/>
<path d="M579.396 284.488C592.961 284.488 603.957 272.793 603.957 258.368C603.957 243.942 592.961 232.248 579.396 232.248C565.831 232.248 554.835 243.942 554.835 258.368C554.835 272.793 565.831 284.488 579.396 284.488Z" fill="#FFB8B8"/>
<path d="M511.243 279.055L492.102 288.041C491.374 288.382 490.549 288.402 489.807 288.096C489.065 287.791 488.468 287.184 488.146 286.411L487.672 285.27C487.352 284.496 487.333 283.619 487.621 282.83C487.908 282.041 488.478 281.406 489.205 281.063L508.347 272.077C509.075 271.737 509.9 271.717 510.642 272.023C511.384 272.328 511.981 272.934 512.303 273.708L512.777 274.848C513.097 275.623 513.115 276.5 512.828 277.289C512.541 278.078 511.971 278.713 511.243 279.055Z" fill="#CCCCCC"/>
<path d="M518.243 292.88L499.102 301.866C498.374 302.207 497.549 302.227 496.807 301.921C496.065 301.615 495.468 301.009 495.146 300.236L494.672 299.095C494.352 298.321 494.333 297.443 494.621 296.655C494.908 295.866 495.478 295.231 496.205 294.888L515.347 285.902C516.075 285.562 516.9 285.542 517.642 285.848C518.384 286.153 518.981 286.759 519.303 287.533L519.777 288.673C520.097 289.448 520.115 290.325 519.828 291.114C519.541 291.903 518.971 292.538 518.243 292.88Z" fill="#CCCCCC"/>
<path d="M533.005 346.88L490.331 311.078C489.991 311.205 489.645 311.313 489.295 311.403C487.788 311.777 486.225 311.811 484.706 311.501C483.186 311.191 481.746 310.545 480.477 309.604C479.199 308.662 478.126 307.442 477.328 306.023C476.53 304.605 476.026 303.022 475.85 301.38C475.564 298.755 476.12 296.104 477.429 293.857C478.738 291.61 480.722 289.9 483.059 289.003C484.518 288.446 486.071 288.224 487.617 288.35C489.162 288.476 490.665 288.948 492.027 289.735C493.389 290.522 494.579 291.606 495.52 292.916C496.461 294.226 497.131 295.733 497.486 297.338C497.595 297.846 497.672 298.362 497.715 298.882L540.196 324.945L550.768 318.472L562.479 334.777L546.065 347.219C544.143 348.663 541.835 349.411 539.482 349.35C537.13 349.289 534.858 348.423 533.005 346.88Z" fill="#FFB8B8"/>
<path d="M567.686 339.855L543.337 322.247L554.78 305.011C556.3 302.723 558.531 301.079 561.08 300.371C563.629 299.662 566.331 299.935 568.709 301.14C571.115 302.36 573.031 304.454 574.112 307.044C575.193 309.635 575.367 312.551 574.603 315.266L567.686 339.855Z" fill="#6C63FF"/>
<path d="M570.391 254.477C564.079 259.072 555.79 263.795 549.342 258.902C545.109 255.689 543.775 249.74 545.492 244.519C548.579 235.13 557.061 230.996 565.172 227.828C575.717 223.709 587.198 220.432 598.083 223.382C608.969 226.332 618.589 237.54 616.624 249.302C615.044 258.761 606.654 266.631 607.845 276.154C609.044 285.738 619.179 290.783 628.126 292.496C637.074 294.209 647.087 294.759 653.517 301.594C661.72 310.313 659.672 325.898 651.953 335.104C644.234 344.309 632.586 348.482 621.299 351.319C606.345 355.078 590.17 357.053 575.967 350.815C561.764 344.578 550.711 327.786 554.826 312.041C556.564 305.391 560.658 299.77 564.614 294.298C568.571 288.826 572.577 283.104 574.087 276.39C575.344 270.796 574.414 264.3 570.925 260.103C570.29 259.369 569.891 258.439 569.784 257.448C569.677 256.457 569.869 255.456 570.331 254.588L570.391 254.477Z" fill="#2F2E41"/>
<path d="M109.072 381.385C102.744 383.751 95.9484 384.343 89.3416 383.106C82.7348 381.868 76.5391 378.842 71.3513 374.318C58.1393 362.525 53.997 343.097 50.6265 325.106C47.3034 307.369 43.9803 289.632 40.6572 271.895L61.5289 287.179C76.5385 298.17 91.8863 309.513 102.279 325.433C112.672 341.353 117.208 363.085 108.858 380.311" fill="#E6E6E6"/>
<path d="M107.288 445.808C109.4 429.444 111.573 412.87 110.091 396.33C108.775 381.641 104.561 367.295 95.982 355.531C91.4283 349.299 85.8874 343.959 79.6082 339.752C77.9708 338.653 76.4638 341.412 78.094 342.507C88.9588 349.809 97.3623 360.592 102.093 373.301C107.318 387.434 108.157 402.84 107.256 417.853C106.712 426.932 105.558 435.952 104.395 444.96C104.303 445.367 104.361 445.797 104.555 446.161C104.75 446.525 105.067 446.797 105.443 446.922C105.826 447.032 106.235 446.977 106.581 446.768C106.926 446.56 107.18 446.215 107.288 445.808H107.288Z" fill="#F2F2F2"/>
<path d="M86.9412 416.851C84.2268 421.239 80.4958 424.809 76.1075 427.217C71.7192 429.626 66.8216 430.792 61.8864 430.604C49.2033 429.963 38.6296 420.549 29.1113 411.612L0.958008 385.177L19.5908 384.229C32.9904 383.547 46.7357 382.911 59.4984 387.305C72.2611 391.7 84.0315 402.276 86.3652 416.324" fill="#E6E6E6"/>
<path d="M113.258 455.215C103.09 436.082 91.2968 414.818 70.2234 408.021C64.364 406.138 58.22 405.463 52.1224 406.034C50.2006 406.21 50.6805 409.36 52.5988 409.185C62.8198 408.282 73.0211 411.152 81.4853 417.312C89.6302 423.208 95.9718 431.405 101.339 440.097C104.627 445.421 107.572 450.972 110.518 456.514C111.459 458.286 114.211 457.007 113.258 455.215Z" fill="#F2F2F2"/>
<path d="M129.55 475.354C129.207 471.132 127.782 467.092 125.429 463.672C123.077 460.252 119.887 457.585 116.207 455.96V444.898H98.7621V456.308C95.2635 458.013 92.2526 460.674 90.0363 464.02C87.82 467.366 86.4776 471.276 86.146 475.354L82.0439 526.064H133.652L129.55 475.354Z" fill="#F2F2F2"/>
</g>
<defs>
<clipPath id="clip0_139_4">
<rect width="692" height="531.604" fill="white" transform="translate(0 0.664307)"/>
</clipPath>
</defs>
</svg>
