<svg width="503" height="499" viewBox="0 0 503 499" fill="none" xmlns="http://www.w3.org/2000/svg">
<g clip-path="url(#clip0_139_71)">
<path d="M498.692 249.499C498.725 277.894 493.903 306.085 484.436 332.853C484.43 332.871 484.425 332.883 484.419 332.901C484.377 333.025 484.336 333.138 484.288 333.262V333.268C482.269 338.946 480.05 344.528 477.631 350.016C471.53 363.855 464.183 377.109 455.682 389.616C453.621 392.662 451.486 395.659 449.279 398.606C446.851 401.866 444.346 405.06 441.763 408.189C439.382 411.075 436.938 413.906 434.431 416.682C431.452 419.988 428.384 423.21 425.227 426.348C417.797 433.751 409.908 440.679 401.607 447.09C400.15 448.222 398.678 449.334 397.189 450.426C393.724 452.986 390.19 455.456 386.587 457.834C378.662 463.076 370.442 467.857 361.967 472.152C360.504 472.899 359.029 473.634 357.548 474.345C351.821 477.113 345.977 479.659 340.017 481.984C338.317 482.654 336.611 483.3 334.888 483.922C334.598 484.035 334.308 484.141 334.011 484.242C313.574 491.623 292.255 496.281 270.603 498.098C269.098 498.234 267.592 498.349 266.084 498.441C264.485 498.554 262.884 498.645 261.281 498.714C260.013 498.779 258.752 498.827 257.478 498.862C257.218 498.874 256.951 498.886 256.69 498.886C254.979 498.939 253.261 498.973 251.538 498.987C250.809 498.993 250.081 498.999 249.346 498.999C249.003 498.999 248.659 498.999 248.316 498.993C243.347 498.975 238.415 498.813 233.521 498.507C233.42 498.501 233.319 498.489 233.219 498.489C231.466 498.37 229.718 498.246 227.977 498.092C221.776 497.57 215.642 496.82 209.575 495.84C208.177 495.621 206.784 495.383 205.394 495.129C199.359 494.062 193.402 492.776 187.525 491.271C185.778 490.826 184.04 490.362 182.313 489.878C172.343 487.102 162.557 483.701 153.013 479.696C147.535 477.397 142.159 474.912 136.886 472.241C134.511 471.038 132.159 469.797 129.832 468.519C129.198 468.176 128.57 467.826 127.943 467.476C123.358 464.916 118.869 462.218 114.474 459.381C110.873 457.064 107.339 454.654 103.873 452.151C103.446 451.854 103.026 451.546 102.605 451.238C99.9459 449.3 97.33 447.313 94.7576 445.276C89.1606 440.837 83.7631 436.173 78.5649 431.284C74.9698 427.906 71.4794 424.421 68.0936 420.83C48.3655 399.954 32.3828 375.83 20.8481 349.518C18.3961 343.918 16.1455 338.215 14.0962 332.409C14.0895 332.396 14.0855 332.382 14.0844 332.367C4.73238 305.742 -0.0301535 277.721 0.000143645 249.499C0.000143645 144.745 64.5222 55.0677 155.969 18.0872C188.559 4.96412 223.547 -1.13928 258.652 0.174906C293.757 1.4891 328.191 10.1914 359.71 25.7145C442.059 66.4462 498.692 151.359 498.692 249.499Z" fill="#F2F2F2"/>
<path d="M359.71 25.7145V341.002H155.969V18.0872C188.559 4.96412 223.546 -1.13928 258.652 0.174906C293.757 1.4891 328.191 10.1914 359.71 25.7145Z" fill="white"/>
<path d="M484.437 332.852C484.431 332.87 484.425 332.882 484.419 332.9C484.378 333.024 484.336 333.137 484.289 333.261V333.267C482.269 338.944 480.05 344.527 477.632 350.015L20.8487 349.517C18.3967 343.917 16.1461 338.214 14.0968 332.408C14.0902 332.395 14.0861 332.381 14.085 332.366L484.437 332.852Z" fill="#3F3D56"/>
<path d="M313.732 334.802H233.776V345.469H313.732V334.802Z" fill="white"/>
<path d="M127.936 439.267C128.221 436.76 128.614 434.269 129.115 431.794C131.856 418.372 137.738 405.792 146.279 395.086C151.165 395.359 155.447 394.612 155.856 385.142C155.933 383.459 157.183 381.995 157.455 380.335C156.993 380.401 156.514 380.436 156.052 380.466C155.904 380.472 155.75 380.484 155.607 380.489H155.554C155.041 380.513 154.532 380.388 154.089 380.129C153.646 379.87 153.287 379.488 153.056 379.03C152.824 378.571 152.731 378.055 152.787 377.544C152.842 377.033 153.044 376.55 153.369 376.151C153.57 375.908 153.771 375.659 153.973 375.411C154.275 375.025 154.589 374.652 154.897 374.273C154.932 374.231 154.962 374.196 154.997 374.154C155.347 373.722 155.696 373.289 156.052 372.856C155.41 371.859 154.546 371.023 153.529 370.415C150.004 368.346 145.142 369.781 142.595 372.969C140.042 376.157 139.557 380.638 140.445 384.62C141.203 388.034 142.856 391.163 144.71 394.138C144.52 394.381 144.319 394.618 144.129 394.867C140.636 399.363 137.591 404.19 135.038 409.28C135.76 403.632 126.93 383.245 123.512 378.925C119.408 373.739 110.998 376.003 110.275 382.581C110.269 382.641 110.257 382.706 110.251 382.771C110.761 383.056 111.258 383.358 111.744 383.684C112.354 384.092 112.827 384.675 113.1 385.356C113.373 386.037 113.435 386.785 113.276 387.502C113.117 388.219 112.746 388.871 112.21 389.373C111.675 389.875 111 390.203 110.275 390.315L110.198 390.327C103.411 400.029 125.176 425.281 130.631 419.615C129.26 423.471 128.165 427.42 127.356 431.432C126.63 434.971 126.123 438.552 125.84 442.153C125.494 446.689 125.516 451.245 125.905 455.778C125.894 455.725 125.886 455.671 125.881 455.618C124.667 445.744 103.896 431.065 97.8314 432.286C94.337 432.991 90.8958 432.831 91.4289 436.357C91.4348 436.416 91.4467 436.47 91.4526 436.529C92.3944 436.909 93.3104 437.351 94.1948 437.851C94.7042 438.135 95.2017 438.443 95.6873 438.763C96.2585 439.145 96.7102 439.681 96.9902 440.309C97.2702 440.937 97.3672 441.632 97.2701 442.312C97.1729 442.993 96.8855 443.633 96.4409 444.157C95.9964 444.681 95.4128 445.069 94.7575 445.276C97.3339 447.309 99.9497 449.296 102.605 451.238C103.026 451.546 103.446 451.855 103.873 452.151C107.337 454.652 110.871 457.062 114.474 459.381C118.869 462.214 123.358 464.912 127.942 467.476C128.57 467.826 129.198 468.176 129.832 468.519C128.238 461.96 127.431 455.233 127.427 448.482C127.426 445.404 127.596 442.327 127.936 439.267ZM131.176 418.092L131.188 418.074C131.188 418.085 131.184 418.096 131.176 418.104V418.092ZM126.456 460.708L126.272 460.3C126.278 459.997 126.278 459.701 126.272 459.393C126.272 459.31 126.254 459.227 126.254 459.144C126.326 459.671 126.385 460.199 126.462 460.726L126.456 460.708ZM153.659 461.515C153.724 461.242 153.777 461.052 153.842 460.78C153.819 460.72 153.795 460.661 153.771 460.608C151.799 455.908 141.387 465.384 136.886 472.241C142.157 474.908 147.533 477.393 153.013 479.697C153.38 479.234 153.76 478.778 154.133 478.316C154.168 478.274 154.198 478.239 154.227 478.197C155.033 477.202 155.844 476.218 156.644 475.222C156.65 475.027 156.65 474.831 156.65 474.641C156.642 471.787 156.292 468.944 155.607 466.173C155.057 466.198 154.513 466.054 154.047 465.759C153.582 465.464 153.218 465.034 153.005 464.525C152.793 464.017 152.741 463.455 152.858 462.917C152.975 462.378 153.255 461.889 153.659 461.514V461.515Z" fill="white"/>
<path d="M281.777 338.173C283.199 339.154 284.819 339.812 286.523 340.099C288.226 340.386 289.972 340.296 291.637 339.836C293.302 339.375 294.846 338.554 296.16 337.432C297.474 336.309 298.526 334.912 299.241 333.339L341.053 337.252L330.788 317.983L292.657 317.221C289.936 316.193 286.933 316.199 284.216 317.239C281.499 318.278 279.258 320.279 277.917 322.862C276.576 325.444 276.228 328.429 276.94 331.251C277.651 334.073 279.372 336.536 281.777 338.173V338.173Z" fill="#FFB6B6"/>
<path d="M324.174 336.854L382.033 343.344L382.232 343.089C382.614 342.601 420.473 294.11 426.834 282.567C430.747 275.631 432.172 267.565 430.873 259.708L430.829 259.516L430.679 259.389C427.594 256.802 423.721 255.344 419.698 255.256C415.674 255.168 411.741 256.454 408.546 258.903C393.185 270.808 380.799 286.122 372.366 303.637L367.58 313.606L324.174 317.889V336.854Z" fill="#6C63FF"/>
<path d="M277.232 472.474L266.085 498.443C264.486 498.556 262.885 498.647 261.282 498.716C260.014 498.781 258.753 498.828 257.479 498.864L257.047 499L256.692 498.888C254.98 498.941 253.262 498.974 251.539 498.988C250.81 498.994 250.082 499 249.347 499C249.004 499 248.66 499 248.317 498.994L249.057 496.458L249.928 493.453L253.387 481.553L258.38 464.373L265.807 467.561L277.232 472.474Z" fill="#FFB6B6"/>
<path d="M357.55 474.346C351.822 477.114 345.979 479.66 340.018 481.985L334.19 472.177L352.977 463.922L357.55 474.346Z" fill="#FFB6B6"/>
<path d="M397.19 429.769V450.428C393.725 452.988 390.191 455.457 386.588 457.836V429.769H397.19Z" fill="#CACACA"/>
<path d="M434.432 416.683C431.453 419.99 428.385 423.212 425.228 426.349C417.799 433.753 409.91 440.681 401.609 447.091H354.345C353.091 447.091 351.85 446.823 350.707 446.305C349.564 445.787 348.545 445.031 347.718 444.087L347.712 444.069C346.727 442.956 346.042 441.609 345.722 440.157L345.716 440.145C345.582 439.522 345.515 438.887 345.515 438.249V425.525C345.516 423.182 346.447 420.934 348.102 419.277C349.758 417.619 352.003 416.686 354.345 416.683H434.432Z" fill="#3F3D56"/>
<path d="M453.906 367.02L448.783 388.983C449.284 392.165 449.45 395.391 449.28 398.607C446.852 401.867 444.347 405.061 441.764 408.19C439.383 411.077 436.939 413.907 434.432 416.683C431.453 419.99 428.385 423.212 425.228 426.349C417.007 428.933 407.318 429.987 397.19 430.059C393.696 430.088 390.148 429.993 386.588 429.804C372.155 429.045 357.555 426.728 345.597 424.322C342.435 423.694 339.461 423.054 336.725 422.431C331.543 421.264 327.207 420.173 324.068 419.344C320.532 418.419 318.519 417.821 318.519 417.821L305.068 440.359L292.856 460.816L277.119 480.913C275.615 481.049 274.108 481.163 272.6 481.256C271.001 481.369 269.4 481.46 267.797 481.529C266.529 481.594 265.268 481.642 263.994 481.677L263.562 481.813L263.206 481.701L257.497 479.881L255.572 479.271L248.648 477.066C248.648 477.066 250.194 472.195 252.901 464.07C253.896 461.089 260.944 439.049 268.318 419.806C270.503 414.093 272.766 408.297 275.093 402.531C277 397.796 278.943 393.078 280.909 388.426C284.327 380.36 300.839 376.01 320.284 373.729C321.273 373.616 322.268 373.503 323.269 373.397C333.177 372.354 343.69 371.814 353.522 371.566C358.444 371.441 363.194 371.394 367.612 371.388C369.039 371.388 370.427 371.392 371.776 371.4H371.782C375.424 371.417 378.776 371.471 381.726 371.53C382.3 371.542 382.857 371.56 383.402 371.571H383.408C383.775 371.577 384.136 371.589 384.492 371.595C390.941 371.761 394.898 371.963 394.898 371.963L396.432 359.92L396.746 357.49L397.042 355.179V355.173L397.077 354.883L397.32 354.877L401.585 354.794L437.429 354.095L452.696 353.447L453.906 367.02Z" fill="#2F2E41"/>
<path d="M356.637 464.449C355.174 465.196 353.7 465.931 352.219 466.642C346.492 469.41 340.648 471.956 334.688 474.281C332.988 474.951 331.282 475.597 329.559 476.219C329.369 475.952 329.174 475.686 328.978 475.419C320.758 464.129 315.64 456.935 305.068 440.359C300.644 433.425 296.196 426.195 291.878 418.81L323.139 404.208L326.645 402.572L336.725 422.431L345.716 440.145L347.718 444.086L356.637 464.449Z" fill="#2F2E41"/>
<path d="M407.343 225.233C423.248 225.233 436.142 212.331 436.142 196.416C436.142 180.501 423.248 167.599 407.343 167.599C391.437 167.599 378.543 180.501 378.543 196.416C378.543 212.331 391.437 225.233 407.343 225.233Z" fill="#FFB6B6"/>
<path d="M458.751 285.989C458.514 262.189 459.213 269.081 457.329 260.885C452.271 238.851 431.275 234.833 427.615 234.335C427.225 233.297 426.626 232.35 425.855 231.553C425.083 230.756 424.156 230.126 423.131 229.703C422.106 229.28 421.005 229.073 419.897 229.094C418.788 229.115 417.696 229.364 416.688 229.825L409.68 233.461C402.887 236.573 407.01 241.068 404.665 248.161L402.201 255.688L382.01 311.532L386.097 332.778L386.103 332.79L388.857 347.102L397.023 356.411L396.87 354.925L396.687 355.209L396.681 355.215L396.207 355.92C396.864 356.282 397.516 356.637 398.156 356.993C399.814 357.906 401.431 358.8 403.006 359.678C403.385 359.891 403.758 360.098 404.132 360.312H404.138C404.374 360.442 404.611 360.572 404.842 360.703C410.753 364.01 388.875 370.031 393.737 372.858C394.412 373.249 395.082 373.64 395.739 374.025C418.127 387.128 435.99 403.45 441.765 408.191C444.347 405.062 446.852 401.867 449.28 398.608C451.484 395.662 453.618 392.666 455.683 389.617C456.044 387.235 456.287 384.853 456.524 382.518C456.808 379.709 455.327 353.686 455.825 350.824C456.044 349.555 455.203 348.352 454.392 347.191C453.64 346.106 452.929 345.087 453.077 344.127C453.231 343.137 454.321 342.059 455.381 341.01C456.536 339.86 457.732 338.675 457.904 337.424C458.378 333.939 456.429 330.443 456.796 326.934C457.4 321.227 457.864 315.503 458.188 309.76C458.644 301.83 458.832 293.907 458.751 285.989Z" fill="#6C63FF"/>
<path d="M296.312 344.358C297.501 343.104 298.95 342.126 300.558 341.493C302.166 340.86 303.892 340.588 305.617 340.695C307.341 340.802 309.021 341.286 310.538 342.113C312.055 342.94 313.372 344.089 314.397 345.481L354.501 333.017L348.432 353.991L311.279 362.612C308.829 364.18 305.889 364.794 303.016 364.338C300.143 363.881 297.538 362.387 295.693 360.137C293.848 357.887 292.892 355.038 293.006 352.13C293.12 349.222 294.297 346.456 296.312 344.358L296.312 344.358Z" fill="#FFB6B6"/>
<path d="M344.931 355.961L419.369 340.605L400.051 345.393C400.27 344.813 421.982 287.242 424.619 274.327C426.292 266.541 425.252 258.416 421.673 251.302L421.575 251.132L421.393 251.055C417.679 249.505 413.548 249.267 409.68 250.382C405.813 251.496 402.441 253.896 400.12 257.185C388.998 273.127 381.73 291.437 378.892 310.67L377.29 321.612L351.045 329.468L344.931 355.961Z" fill="#6C63FF"/>
<path d="M206.206 332.51C206.467 333.27 206.962 333.928 207.62 334.389C208.278 334.85 209.065 335.091 209.868 335.077L225.559 334.673C226.368 334.657 227.15 334.379 227.789 333.882C228.427 333.385 228.888 332.694 229.101 331.913L231.321 308.156C232.109 308.513 232.967 308.689 233.831 308.672C235.349 308.634 236.788 307.994 237.834 306.894C238.88 305.793 239.446 304.322 239.408 302.804C239.37 301.286 238.731 299.845 237.631 298.799C236.532 297.752 235.061 297.186 233.544 297.224C233.199 297.223 232.854 297.259 232.516 297.331C232.148 296.933 231.702 296.617 231.205 296.402C230.707 296.187 230.171 296.079 229.629 296.085L205.494 296.708C205.294 296.716 205.095 296.74 204.899 296.782C204.369 296.881 203.867 297.092 203.426 297.401C202.985 297.71 202.616 298.11 202.342 298.574C202.069 299.039 201.898 299.556 201.841 300.092C201.784 300.627 201.842 301.169 202.012 301.68L206.206 332.51ZM231.777 306.543L233.357 300.881C233.537 300.227 233.541 299.537 233.369 298.881C233.446 298.881 233.513 298.845 233.59 298.845C234.673 298.822 235.721 299.231 236.504 299.98C237.287 300.73 237.741 301.759 237.766 302.843C237.792 303.927 237.386 304.977 236.639 305.762C235.892 306.548 234.865 307.005 233.781 307.033C233.081 307.055 232.388 306.885 231.777 306.543Z" fill="#2F2E41"/>
<path d="M204.898 296.782C205.413 299.724 211.194 301.792 218.145 301.433C224.537 301.138 229.764 298.892 230.721 296.23C230.367 296.125 229.999 296.076 229.629 296.084L205.494 296.708C205.294 296.715 205.094 296.74 204.898 296.782Z" fill="#3F3D56"/>
<path d="M99.9414 275.275V326.067C99.9419 326.714 100.199 327.334 100.657 327.792C101.114 328.25 101.734 328.507 102.381 328.508H177.602C178.249 328.507 178.869 328.25 179.327 327.792C179.784 327.334 180.041 326.714 180.042 326.067V275.275C180.04 274.629 179.783 274.009 179.325 273.552C178.868 273.095 178.248 272.838 177.602 272.837H102.381C101.735 272.838 101.115 273.095 100.658 273.552C100.201 274.009 99.9429 274.629 99.9414 275.275Z" fill="#3F3D56"/>
<path d="M101.706 275.907V325.44C101.707 325.786 101.844 326.117 102.089 326.362C102.333 326.607 102.664 326.744 103.01 326.745H176.976C177.322 326.744 177.653 326.607 177.897 326.362C178.142 326.117 178.279 325.786 178.28 325.44V275.907C178.28 275.561 178.142 275.229 177.898 274.984C177.654 274.739 177.322 274.601 176.976 274.6H103.01C102.664 274.601 102.332 274.739 102.088 274.984C101.843 275.229 101.706 275.561 101.706 275.907Z" fill="#6C63FF"/>
<path d="M98.3684 335.972C98.5062 336.145 98.6814 336.285 98.8807 336.38C99.0801 336.476 99.2985 336.525 99.5195 336.523H180.064C180.284 336.523 180.501 336.474 180.7 336.379C180.899 336.284 181.074 336.146 181.213 335.975C181.352 335.803 181.45 335.603 181.502 335.389C181.554 335.175 181.557 334.952 181.512 334.736L180.262 328.794C180.21 328.551 180.099 328.326 179.937 328.138C179.776 327.95 179.571 327.805 179.339 327.716C179.172 327.651 178.993 327.617 178.813 327.617H100.765C100.585 327.617 100.406 327.651 100.239 327.716C100.007 327.805 99.8018 327.95 99.6406 328.138C99.4794 328.326 99.3678 328.551 99.316 328.794L98.0657 334.736C98.0213 334.952 98.0253 335.175 98.0777 335.388C98.13 335.602 98.2293 335.802 98.3684 335.972Z" fill="#2F2E41"/>
<path d="M176.05 330.177H177.952C178.112 330.177 178.241 330.047 178.241 329.887V328.977C178.241 328.817 178.112 328.687 177.952 328.687H176.05C175.89 328.687 175.76 328.817 175.76 328.977V329.887C175.76 330.047 175.89 330.177 176.05 330.177Z" fill="#3F3D56"/>
<path d="M171.088 330.177H172.991C173.15 330.177 173.28 330.047 173.28 329.887V328.977C173.28 328.817 173.15 328.687 172.991 328.687H171.088C170.929 328.687 170.799 328.817 170.799 328.977V329.887C170.799 330.047 170.929 330.177 171.088 330.177Z" fill="#3F3D56"/>
<path d="M166.127 330.177H168.029C168.189 330.177 168.318 330.047 168.318 329.887V328.977C168.318 328.817 168.189 328.687 168.029 328.687H166.127C165.967 328.687 165.838 328.817 165.838 328.977V329.887C165.838 330.047 165.967 330.177 166.127 330.177Z" fill="#3F3D56"/>
<path d="M161.165 330.177H163.068C163.227 330.177 163.357 330.047 163.357 329.887V328.977C163.357 328.817 163.227 328.687 163.068 328.687H161.165C161.006 328.687 160.876 328.817 160.876 328.977V329.887C160.876 330.047 161.006 330.177 161.165 330.177Z" fill="#3F3D56"/>
<path d="M156.204 330.177H158.106C158.266 330.177 158.396 330.047 158.396 329.887V328.977C158.396 328.817 158.266 328.687 158.106 328.687H156.204C156.044 328.687 155.915 328.817 155.915 328.977V329.887C155.915 330.047 156.044 330.177 156.204 330.177Z" fill="#3F3D56"/>
<path d="M151.242 330.177H153.145C153.305 330.177 153.434 330.047 153.434 329.887V328.977C153.434 328.817 153.305 328.687 153.145 328.687H151.242C151.083 328.687 150.953 328.817 150.953 328.977V329.887C150.953 330.047 151.083 330.177 151.242 330.177Z" fill="#3F3D56"/>
<path d="M146.281 330.177H148.184C148.343 330.177 148.473 330.047 148.473 329.887V328.977C148.473 328.817 148.343 328.687 148.184 328.687H146.281C146.121 328.687 145.992 328.817 145.992 328.977V329.887C145.992 330.047 146.121 330.177 146.281 330.177Z" fill="#3F3D56"/>
<path d="M141.319 330.177H143.222C143.381 330.177 143.511 330.047 143.511 329.887V328.977C143.511 328.817 143.381 328.687 143.222 328.687H141.319C141.159 328.687 141.03 328.817 141.03 328.977V329.887C141.03 330.047 141.159 330.177 141.319 330.177Z" fill="#3F3D56"/>
<path d="M136.358 330.177H138.26C138.42 330.177 138.549 330.047 138.549 329.887V328.977C138.549 328.817 138.42 328.687 138.26 328.687H136.358C136.198 328.687 136.069 328.817 136.069 328.977V329.887C136.069 330.047 136.198 330.177 136.358 330.177Z" fill="#3F3D56"/>
<path d="M131.396 330.177H133.299C133.458 330.177 133.588 330.047 133.588 329.887V328.977C133.588 328.817 133.458 328.687 133.299 328.687H131.396C131.237 328.687 131.107 328.817 131.107 328.977V329.887C131.107 330.047 131.237 330.177 131.396 330.177Z" fill="#3F3D56"/>
<path d="M126.435 330.177H128.337C128.497 330.177 128.626 330.047 128.626 329.887V328.977C128.626 328.817 128.497 328.687 128.337 328.687H126.435C126.275 328.687 126.146 328.817 126.146 328.977V329.887C126.146 330.047 126.275 330.177 126.435 330.177Z" fill="#3F3D56"/>
<path d="M121.473 330.177H123.376C123.536 330.177 123.665 330.047 123.665 329.887V328.977C123.665 328.817 123.536 328.687 123.376 328.687H121.473C121.314 328.687 121.184 328.817 121.184 328.977V329.887C121.184 330.047 121.314 330.177 121.473 330.177Z" fill="#3F3D56"/>
<path d="M116.512 330.177H118.414C118.574 330.177 118.704 330.047 118.704 329.887V328.977C118.704 328.817 118.574 328.687 118.414 328.687H116.512C116.352 328.687 116.223 328.817 116.223 328.977V329.887C116.223 330.047 116.352 330.177 116.512 330.177Z" fill="#3F3D56"/>
<path d="M111.551 330.177H113.453C113.613 330.177 113.742 330.047 113.742 329.887V328.977C113.742 328.817 113.613 328.687 113.453 328.687H111.551C111.391 328.687 111.261 328.817 111.261 328.977V329.887C111.261 330.047 111.391 330.177 111.551 330.177Z" fill="#3F3D56"/>
<path d="M106.589 330.177H108.492C108.651 330.177 108.781 330.047 108.781 329.887V328.977C108.781 328.817 108.651 328.687 108.492 328.687H106.589C106.43 328.687 106.3 328.817 106.3 328.977V329.887C106.3 330.047 106.43 330.177 106.589 330.177Z" fill="#3F3D56"/>
<path d="M101.628 330.177H103.53C103.69 330.177 103.819 330.047 103.819 329.887V328.977C103.819 328.817 103.69 328.687 103.53 328.687H101.628C101.468 328.687 101.339 328.817 101.339 328.977V329.887C101.339 330.047 101.468 330.177 101.628 330.177Z" fill="#3F3D56"/>
<path d="M176.108 332.659H178.011C178.17 332.659 178.3 332.529 178.3 332.369V331.459C178.3 331.299 178.17 331.169 178.011 331.169H176.108C175.949 331.169 175.819 331.299 175.819 331.459V332.369C175.819 332.529 175.949 332.659 176.108 332.659Z" fill="#3F3D56"/>
<path d="M171.147 332.659H173.049C173.209 332.659 173.338 332.529 173.338 332.369V331.459C173.338 331.299 173.209 331.169 173.049 331.169H171.147C170.987 331.169 170.858 331.299 170.858 331.459V332.369C170.858 332.529 170.987 332.659 171.147 332.659Z" fill="#3F3D56"/>
<path d="M166.185 332.659H168.088C168.248 332.659 168.377 332.529 168.377 332.369V331.459C168.377 331.299 168.248 331.169 168.088 331.169H166.185C166.026 331.169 165.896 331.299 165.896 331.459V332.369C165.896 332.529 166.026 332.659 166.185 332.659Z" fill="#3F3D56"/>
<path d="M161.224 332.659H163.126C163.286 332.659 163.416 332.529 163.416 332.369V331.459C163.416 331.299 163.286 331.169 163.126 331.169H161.224C161.064 331.169 160.935 331.299 160.935 331.459V332.369C160.935 332.529 161.064 332.659 161.224 332.659Z" fill="#3F3D56"/>
<path d="M156.263 332.659H158.165C158.325 332.659 158.454 332.529 158.454 332.369V331.459C158.454 331.299 158.325 331.169 158.165 331.169H156.263C156.103 331.169 155.973 331.299 155.973 331.459V332.369C155.973 332.529 156.103 332.659 156.263 332.659Z" fill="#3F3D56"/>
<path d="M151.301 332.659H153.204C153.363 332.659 153.493 332.529 153.493 332.369V331.459C153.493 331.299 153.363 331.169 153.204 331.169H151.301C151.141 331.169 151.012 331.299 151.012 331.459V332.369C151.012 332.529 151.141 332.659 151.301 332.659Z" fill="#3F3D56"/>
<path d="M146.34 332.659H148.242C148.402 332.659 148.531 332.529 148.531 332.369V331.459C148.531 331.299 148.402 331.169 148.242 331.169H146.34C146.18 331.169 146.051 331.299 146.051 331.459V332.369C146.051 332.529 146.18 332.659 146.34 332.659Z" fill="#3F3D56"/>
<path d="M141.378 332.659H143.281C143.44 332.659 143.57 332.529 143.57 332.369V331.459C143.57 331.299 143.44 331.169 143.281 331.169H141.378C141.219 331.169 141.089 331.299 141.089 331.459V332.369C141.089 332.529 141.219 332.659 141.378 332.659Z" fill="#3F3D56"/>
<path d="M136.416 332.659H138.319C138.478 332.659 138.608 332.529 138.608 332.369V331.459C138.608 331.299 138.478 331.169 138.319 331.169H136.416C136.257 331.169 136.127 331.299 136.127 331.459V332.369C136.127 332.529 136.257 332.659 136.416 332.659Z" fill="#3F3D56"/>
<path d="M131.455 332.659H133.357C133.517 332.659 133.646 332.529 133.646 332.369V331.459C133.646 331.299 133.517 331.169 133.357 331.169H131.455C131.295 331.169 131.166 331.299 131.166 331.459V332.369C131.166 332.529 131.295 332.659 131.455 332.659Z" fill="#3F3D56"/>
<path d="M126.493 332.659H128.396C128.556 332.659 128.685 332.529 128.685 332.369V331.459C128.685 331.299 128.556 331.169 128.396 331.169H126.493C126.334 331.169 126.204 331.299 126.204 331.459V332.369C126.204 332.529 126.334 332.659 126.493 332.659Z" fill="#3F3D56"/>
<path d="M121.532 332.659H123.434C123.594 332.659 123.724 332.529 123.724 332.369V331.459C123.724 331.299 123.594 331.169 123.434 331.169H121.532C121.372 331.169 121.243 331.299 121.243 331.459V332.369C121.243 332.529 121.372 332.659 121.532 332.659Z" fill="#3F3D56"/>
<path d="M116.571 332.659H118.473C118.633 332.659 118.762 332.529 118.762 332.369V331.459C118.762 331.299 118.633 331.169 118.473 331.169H116.571C116.411 331.169 116.281 331.299 116.281 331.459V332.369C116.281 332.529 116.411 332.659 116.571 332.659Z" fill="#3F3D56"/>
<path d="M111.609 332.659H113.512C113.671 332.659 113.801 332.529 113.801 332.369V331.459C113.801 331.299 113.671 331.169 113.512 331.169H111.609C111.449 331.169 111.32 331.299 111.32 331.459V332.369C111.32 332.529 111.449 332.659 111.609 332.659Z" fill="#3F3D56"/>
<path d="M106.648 332.659H108.55C108.71 332.659 108.839 332.529 108.839 332.369V331.459C108.839 331.299 108.71 331.169 108.55 331.169H106.648C106.488 331.169 106.359 331.299 106.359 331.459V332.369C106.359 332.529 106.488 332.659 106.648 332.659Z" fill="#3F3D56"/>
<path d="M101.686 332.659H103.589C103.748 332.659 103.878 332.529 103.878 332.369V331.459C103.878 331.299 103.748 331.169 103.589 331.169H101.686C101.527 331.169 101.397 331.299 101.397 331.459V332.369C101.397 332.529 101.527 332.659 101.686 332.659Z" fill="#3F3D56"/>
<path d="M134.928 335.638H154.196C154.355 335.638 154.485 335.508 154.485 335.348V334.438C154.485 334.278 154.355 334.148 154.196 334.148H134.928C134.769 334.148 134.639 334.278 134.639 334.438V335.348C134.639 335.508 134.769 335.638 134.928 335.638Z" fill="#3F3D56"/>
<path d="M280.12 333.21L313.785 303.76C315.385 302.36 312.333 306.532 313.732 308.133C315.132 309.735 320.453 308.16 318.853 309.56L285.188 339.01L276.663 340.958L280.12 333.21Z" fill="#3F3D56"/>
<path d="M280.12 333.21L280.936 332.497C282.025 333.043 282.997 333.797 283.797 334.717C284.744 335.798 285.432 337.081 285.808 338.468L285.188 339.01L278.393 340.562L276.663 340.958L277.384 339.335L280.12 333.21Z" fill="#CCCCCC"/>
<path d="M277.384 339.335C277.637 339.446 277.859 339.615 278.035 339.828C278.21 340.041 278.333 340.293 278.393 340.562L276.663 340.958L277.384 339.335Z" fill="#3F3D56"/>
<path d="M499.77 238.82C496.596 243.573 491.514 246.862 486.041 248.492C483.818 249.154 481.523 249.544 479.207 249.653C478.921 247.032 478.235 244.47 477.175 242.056C477.283 244.625 476.926 247.193 476.121 249.635C472.642 249.438 469.241 248.526 466.129 246.957C460.058 243.845 455.385 237.895 454.349 231.145C453.129 223.263 456.7 215.523 457.991 207.653C459.289 199.783 456.854 189.815 449.155 187.747C443.291 186.17 443.949 186.852 439.074 190.473C444.145 197.974 425.417 225.465 417.753 223.068C413.419 221.712 410.645 217.734 409.751 217.734C403.728 228.117 415.07 245.611 403.639 249.244L404.58 248.302C411.48 239.81 397.059 221.835 403.959 213.343C405.883 210.966 407.933 208.151 407.364 205.146C406.825 202.29 402.294 200.779 400.968 203.126C403.354 197.655 399.83 190.354 393.997 188.95C388.814 187.699 388.909 189.24 383.709 189.91C383.369 187.661 382.734 185.467 381.819 183.385C381.915 185.628 381.653 187.873 381.044 190.034C379.207 189.998 377.433 189.357 375.997 188.209C371.757 184.789 372.616 177.607 376.4 173.689C380.191 169.772 385.823 168.362 391.195 167.449C392.757 156.568 422.76 155.433 426.737 166.305C428.431 158.186 438.589 153.972 446.484 156.491C454.379 159.01 459.857 166.388 462.741 174.163C465.626 181.933 466.431 190.295 468.208 198.39C469.985 206.486 472.988 214.729 479.171 220.247C485.354 225.758 495.429 227.584 501.944 222.463C503.999 227.797 502.939 234.061 499.77 238.82Z" fill="#2F2E41"/>
</g>
<defs>
<clipPath id="clip0_139_71">
<rect width="503" height="499" fill="white"/>
</clipPath>
</defs>
</svg>
